# xmcd CD database file
#
# Track frame offsets:
#	182
#	14037
#	26230
#	40377
#	53957
#	72850
#	88505
#	100110
#	112702
#	129795
#
# Disc length: 1883 seconds
#
# Revision: 5
# Processed by: cddbd v1.5.2PL0 Copyright (c) Steve Scherf et al.
# Submitted via: cdripper 1,0,43,1226
#
DISCID=7c07590a
DTITLE=Texas Tornados - Zone Of Our Own
DYEAR=1991
DGENRE=Country
TTITLE0=Is Anybody Goin' To San Antone
TTITLE1=La Mucura
TTITLE2=Bailando
TTITLE3=I'm Not That Kat Anymore
TTITLE4=Oh Holy One
TTITLE5=He Is A Tejano
TTITLE6=El Pantalon Blue Jean
TTITLE7=Just Can't Fake It
TTITLE8=Did I Tell You
TTITLE9=Volver
EXTD=YEAR: 1991
EXTT0=
EXTT1=
EXTT2=
EXTT3=
EXTT4=
EXTT5=
EXTT6=
EXTT7=
EXTT8=
EXTT9=
PLAYORDER=
